<svg width="30" height="21" viewBox="0 0 30 21" fill="none" xmlns="http://www.w3.org/2000/svg">
<path d="M0 14.9559V20.5016H4.07461V15.635C4.07461 13.4765 5.27507 12.0801 8.19571 11.9821V7.91417C2.82931 8.00383 0 10.7883 0 14.9559Z" fill="#FF6100"/>
<path d="M23.5477 7.73317C19.7654 7.75476 17.049 10.4728 17.049 14.2087C17.049 17.8981 19.3137 20.3206 23.1393 20.6842L25.8109 18.6685L25.9022 18.7134V20.5016H30V14.2087C30 10.2902 27.4264 7.70993 23.5477 7.73317ZM23.5477 16.6993C22.143 16.6993 21.1252 15.6566 21.1252 14.2087C21.1252 12.7608 22.143 11.7181 23.5477 11.7181C24.9524 11.7181 25.9238 12.7592 25.9238 14.2087C25.9238 15.6582 24.9358 16.6993 23.5477 16.6993Z" fill="#FF6100"/>
<path d="M14.9652 7.91417H10.8906V20.5033H14.9652V7.91417Z" fill="#FF6100"/>
<path d="M12.9278 0.76874C12.3906 0.769067 11.8656 0.928326 11.4191 1.22638C10.9726 1.52444 10.6247 1.94791 10.4194 2.44326C10.214 2.9386 10.1605 3.48358 10.2655 4.0093C10.3705 4.53502 10.6293 5.01787 11.0093 5.3968C11.3892 5.77574 11.8733 6.03374 12.4001 6.1382C12.927 6.24266 13.4731 6.18888 13.9694 5.98366C14.4656 5.77845 14.8898 5.43101 15.1882 4.98527C15.4866 4.53953 15.6459 4.01551 15.6459 3.47945C15.6461 3.12328 15.5759 2.77055 15.4394 2.44147C15.3029 2.11238 15.1026 1.8134 14.8502 1.56162C14.5977 1.30984 14.298 1.11021 13.9681 0.97416C13.6383 0.838109 13.2847 0.768304 12.9278 0.76874Z" fill="#FF6100"/>
</svg>
